<svg xmlns="http://www.w3.org/2000/svg" aria-hidden="true" style="position:absolute;width:0;height:0;overflow:hidden"><defs>
<symbol id="icon-logo-icon" viewBox="0 0 32 32"><path d="M17.5 3.14c.384-.041.83.039 1.2.144.838.238 1.518.747 1.922 1.474.42.745.5 1.616.223 2.417-.352.988-1.105 1.485-2.047 1.941l.011 2.881c.673.191 1.328.408 1.939.738a5.666 5.666 0 0 1 2.768 3.493 5.596 5.596 0 0 1-.673 4.508 5.72 5.72 0 0 1-3.539 2.492c-1.959.456-3.621-.038-5.305-.971-.744.742-1.48 1.492-2.206 2.25.325.713.432 1.462.217 2.22-.21.741-.768 1.376-1.48 1.751-.799.421-1.709.498-2.584.264-.869-.232-1.599-.733-2.024-1.487-.418-.741-.453-1.609-.182-2.4.308-.899.936-1.453 1.82-1.864.95-.346 1.736-.232 2.664.079.772-.757 1.5-1.553 2.28-2.304-.858-1.567-1.136-2.902-.69-4.629-.971-.422-1.907-.914-2.879-1.337a3.466 3.466 0 0 1-1.899.966 3.669 3.669 0 0 1-2.556-.573c-.724-.489-1.2-1.233-1.317-2.059-.12-.801.106-1.683.656-2.315.567-.652 1.448-1.044 2.337-1.131a3.467 3.467 0 0 1 2.422.69c.865.675 1.115 1.514 1.22 2.515.921.526 1.976.932 2.935 1.402 1.248-1.375 2.16-1.809 3.98-2.332l.002-2.859a4.29 4.29 0 0 1-.935-.464c-.718-.495-1.189-1.24-1.306-2.065a2.95 2.95 0 0 1 .691-2.297c.601-.702 1.404-1.022 2.336-1.137zm4.012 14.222c-.185-1.967-2.04-3.425-4.152-3.265-2.131.162-3.713 1.908-3.527 3.892s2.071 3.448 4.2 3.262c2.11-.185 3.663-1.922 3.478-3.889zM27.617 12.586c.09-.004.178-.005.267.007.28.038.556.164.71.393.164.243.186.567.208.849.111 1.394.029 2.844.028 4.243 0 1.142.136 2.691-.092 3.792-.072.346-.318.511-.612.698-.112.013-.23.027-.343.021a.952.952 0 0 1-.656-.298c-.162-.178-.157-.535-.171-.759-.103-1.603-.016-3.258-.014-4.866.001-.914-.134-2.663.072-3.479.074-.292.356-.445.603-.6zM25.036 14.825c.304.052.572.158.749.404.273.379.28 4.091.144 4.621-.075.29-.344.431-.599.57-.292-.016-.676-.04-.871-.276-.29-.351-.266-4.296-.101-4.791.096-.287.413-.409.678-.528z"/></symbol>
<symbol id="icon-Instagram" viewBox="0 0 32 32"><path d="M15.998 6.161c3.206 0 3.585.014 4.846.071 1.172.052 1.804.248 2.226.412.558.216.961.478 1.378.895.422.422.679.82.9 1.378.164.422.361 1.059.412 2.226.056 1.266.071 1.645.071 4.847s-.014 3.585-.071 4.847c-.052 1.172-.248 1.804-.412 2.227a3.702 3.702 0 0 1-.895 1.377c-.422.422-.82.679-1.378.9-.422.164-1.06.361-2.226.412-1.266.056-1.645.071-4.847.071s-3.585-.014-4.847-.071c-1.172-.052-1.804-.248-2.226-.412a3.714 3.714 0 0 1-1.378-.895 3.767 3.767 0 0 1-.9-1.378c-.164-.422-.361-1.06-.412-2.226-.056-1.266-.071-1.645-.071-4.847s.014-3.585.071-4.847c.052-1.172.248-1.804.412-2.226.216-.558.478-.961.895-1.378.422-.422.82-.679 1.378-.9.422-.164 1.059-.361 2.226-.412 1.261-.056 1.641-.071 4.847-.071h.001zm0-2.16c-3.258 0-3.665.014-4.945.071-1.275.056-2.151.262-2.91.558a5.847 5.847 0 0 0-2.127 1.387A5.883 5.883 0 0 0 4.629 8.14c-.295.764-.502 1.636-.558 2.91C4.015 12.335 4 12.742 4 15.999s.014 3.665.071 4.945c.056 1.275.262 2.151.558 2.91a5.86 5.86 0 0 0 1.387 2.127 5.876 5.876 0 0 0 2.123 1.383c.764.295 1.636.502 2.91.558 1.279.056 1.687.071 4.945.071s3.666-.014 4.945-.071c1.275-.056 2.151-.262 2.91-.558.787-.305 1.458-.717 2.123-1.383s1.078-1.336 1.383-2.123c.295-.764.502-1.635.558-2.91.056-1.279.071-1.687.071-4.945s-.014-3.665-.071-4.945c-.056-1.275-.262-2.151-.558-2.91a5.622 5.622 0 0 0-1.373-2.133 5.876 5.876 0 0 0-2.123-1.383c-.764-.295-1.635-.502-2.91-.558-1.284-.061-1.692-.075-4.949-.075L15.999 4z"/><path d="M15.997 9.836a6.164 6.164 0 1 0 6.163 6.163 6.165 6.165 0 0 0-6.163-6.163zm0 10.161a3.998 3.998 0 1 1 0-7.996 3.998 3.998 0 0 1 0 7.996zM23.842 9.592a1.439 1.439 0 1 1-2.877 0 1.439 1.439 0 0 1 2.877 0z"/></symbol>
<symbol id="icon-Youtube" viewBox="0 0 32 32"><path d="M28.791 9.604a3.345 3.345 0 0 0-2.35-2.354C24.353 6.677 16 6.667 16 6.667s-8.352-.009-10.441.539a3.416 3.416 0 0 0-2.354 2.371c-.551 2.088-.556 6.419-.556 6.419s-.005 4.352.541 6.419a3.341 3.341 0 0 0 2.351 2.353c2.109.573 10.44.583 10.44.583s8.353.009 10.441-.537a3.356 3.356 0 0 0 2.356-2.35c.552-2.087.556-6.416.556-6.416s.027-4.353-.543-6.441zM13.328 20.007l.007-8 6.943 4.007-6.949 3.993z"/></symbol>
<symbol id="icon-Facebook" viewBox="0 0 32 32"><path d="M29.333 16.405C29.333 8.996 23.364 2.99 16 2.99S2.667 8.996 2.667 16.405c0 6.696 4.876 12.245 11.25 13.252v-9.374h-3.385v-3.878h3.385V13.45c0-3.362 1.991-5.219 5.036-5.219 1.459 0 2.985.262 2.985.262v3.301h-1.681c-1.656 0-2.173 1.034-2.173 2.095v2.516h3.698l-.591 3.878h-3.107v9.374c6.374-1.006 11.25-6.556 11.25-13.252z"/></symbol>
<symbol id="icon-right-arrow-alt" viewBox="0 0 32 32"><path d="m15.057 23.057 1.885 1.885 8.943-8.943-8.943-8.943-1.885 1.885 5.724 5.724H8v2.667h12.781l-5.724 5.724z"/></symbol>
<symbol id="icon-left-arrow-alt" viewBox="0 0 32 32"><path d="m16.943 23.057-5.724-5.724H24v-2.667H11.219l5.724-5.724-1.885-1.885L6.115 16l8.943 8.943 1.885-1.885z"/></symbol>
<symbol id="icon-right-arrow" viewBox="0 0 32 32"><path d="M7.381 29.181a1.343 1.343 0 0 0 1.378-.085l17.333-12a1.33 1.33 0 0 0 .422-1.715 1.327 1.327 0 0 0-.422-.477l-17.333-12a1.327 1.327 0 0 0-2.092 1.095v24a1.333 1.333 0 0 0 .714 1.181zM9.333 6.545 22.99 16 9.333 25.455V6.546z"/></symbol>
<symbol id="icon-logo" viewBox="0 0 110 32"><path d="M16.216.013c.434-.05.936.047 1.354.174.945.288 1.714.905 2.169 1.785.474.902.564 1.957.252 2.927-.397 1.196-1.247 1.797-2.31 2.35l.012 3.489c.759.231 1.498.495 2.187.894 1.584.919 2.669 2.467 3.123 4.23a7.21 7.21 0 0 1-.76 5.459c-.887 1.493-2.3 2.597-3.993 3.019-2.211.552-4.086-.047-5.986-1.176a156.6 156.6 0 0 0-2.489 2.725c.366.864.487 1.77.244 2.687-.237.897-.866 1.666-1.67 2.121-.901.51-1.928.603-2.916.321-.981-.281-1.805-.889-2.284-1.802-.472-.897-.511-1.949-.206-2.907C3.291 25.22 4 24.55 4.996 24.052c1.072-.419 1.958-.281 3.005.096.872-.917 1.693-1.88 2.574-2.789-.968-1.898-1.281-3.515-.778-5.606-1.096-.511-2.153-1.108-3.249-1.62-.586.61-1.301 1.028-2.142 1.169-1.003.169-2.061-.105-2.885-.694a3.671 3.671 0 0 1-1.486-2.493c-.135-.97.12-2.038.741-2.803.64-.789 1.634-1.265 2.637-1.37a3.727 3.727 0 0 1 2.734.836c.976.818 1.258 1.834 1.376 3.045 1.039.637 2.229 1.129 3.311 1.698 1.409-1.665 2.439-2.191 4.492-2.824l.002-3.463a4.767 4.767 0 0 1-1.055-.561A3.715 3.715 0 0 1 12.8 4.172a3.76 3.76 0 0 1 .779-2.782C14.257.539 15.164.152 16.215.013zm4.528 17.225a4.35 4.35 0 1 0-8.666.76 4.35 4.35 0 0 0 8.666-.76zM101.919 11.829c.708.001 1.416.011 2.124.029l-.004 3.742c.545-.424 1.14-.739 1.831-.843.933-.141 1.884.1 2.636.669.908.687 1.385 1.844 1.524 2.949.175 1.401-.154 2.749-1.02 3.866-.573.554-1.263.942-2.057 1.072-1.165.191-2.087-.216-2.997-.894l-.004.818-2.032-.003-.001-11.404zm3.641 4.904c-.632.21-1.07.51-1.378 1.118-.343.674-.365 1.508-.099 2.211.204.538.585 1.004 1.117 1.244.386.175.75.18 1.165.155.66-.249 1.103-.569 1.401-1.229.312-.689.307-1.52.011-2.214-.227-.533-.631-.963-1.176-1.174-.341-.131-.683-.149-1.042-.111zM41.085 11.807c1.246 3.84 2.84 7.575 4.055 11.425l-2.296.003c-.269-.822-.529-1.752-.94-2.512-.268-.115-.586-.076-.873-.073-1.107.011-2.215.007-3.323-.012-.348.849-.628 1.722-.903 2.596l-2.339-.002c1.221-3.833 2.678-7.617 3.996-11.42.872.019 1.749-.002 2.622-.005zm-1.309 2.839c-.483 1.375-.934 2.768-1.464 4.125l1.681-.001 1.307-.015c-.184-.518-1.25-3.88-1.524-4.109zM89.498 11.832l2.196.013c-.03 2.647-.007 5.298-.007 7.945-.001 1.093.11 2.287-.012 3.365l-.121.083h-2.058l-.004-4.889c-1.645-.046-3.303-.005-4.949-.003l.001 4.894-2.209-.004.009-11.401 2.201.005.001 4.662h4.957l-.003-4.67zM93.015 14.992c.729.021 1.459.013 2.188.017-.009 1.165-.193 4.384.089 5.347.111.38.333.728.693.913.541.278 1.09.117 1.628-.072.238-.266.443-.515.561-.859.386-1.123.18-4.006.174-5.343.694.019 1.391.004 2.085 0-.016.8-.003 1.603-.004 2.404l.011 5.834c-.683.01-1.365.005-2.047-.015l-.063-.074c.01-.173.012-.314-.018-.487-.639.277-1.209.697-1.936.712-.843.017-1.758-.245-2.364-.851-.459-.459-.739-1.077-.883-1.703-.31-1.348-.127-4.332-.113-5.824zM63.498 14.762c1.089-.085 2.224-.008 3.104.725.617.514.816 1.13.883 1.897l-1.968-.002c-.113-.21-.227-.454-.404-.619a1.505 1.505 0 0 0-1.078-.377c-.298.016-.679.135-.865.387-.113.154-.175.311-.132.503.224 1.009 2.79.884 3.607 1.419.52.341.919.951 1.034 1.56a2.292 2.292 0 0 1-.408 1.775c-.627.865-1.593 1.175-2.599 1.329-.931.056-2.011-.194-2.756-.761-.699-.532-.95-1.185-1.045-2.025.663.002 1.326-.005 1.989-.018.039.125.082.246.145.361.289.533.865.651 1.4.808.353-.081.831-.172 1.082-.457.151-.172.204-.471.14-.691-.245-.843-2.703-.943-3.556-1.468-.505-.311-.876-.764-1.011-1.349-.121-.53-.075-1.125.223-1.59.538-.84 1.28-1.185 2.216-1.408zM76.743 14.76c.62-.05 1.227-.047 1.832.117.697.189 1.438.578 1.79 1.239.17.317.3.886.186 1.237-.565.122-1.255.04-1.835.033-.085-.287-.158-.509-.391-.707a1.415 1.415 0 0 0-1.062-.322c-.3.031-.685.178-.852.447-.1.16-.141.325-.078.509.363 1.068 2.535.814 3.38 1.297.538.308.988.848 1.141 1.454.164.65.056 1.372-.319 1.931-.56.835-1.449 1.149-2.388 1.331-.922.114-1.989-.082-2.759-.613-.791-.545-1.028-1.229-1.206-2.123l1.973-.015c.12.302.229.537.485.746.341.279.745.406 1.184.347.341-.045.676-.202.88-.487.133-.187.199-.414.136-.642-.247-.878-2.426-.823-3.29-1.288-.584-.315-1.047-.838-1.231-1.481a2.017 2.017 0 0 1 .196-1.599c.477-.81 1.353-1.206 2.231-1.409zM52.453 12.728c.655.023 1.315.009 1.97.011-.007.74.004 1.48.032 2.219l1.944.001-.004 1.694-1.851-.001c.001 1.066-.243 3.817.246 4.641.382.301 1.145.189 1.609.183l-.007 1.404c.004.145.004.218-.07.344-.259.124-.524.152-.81.154-.752.007-1.791-.129-2.331-.693-1.086-1.131-.739-4.457-.734-6.035l-1.254.002.004-1.698 1.249.008.007-2.236zM69.353 12.719l1.934.011c-.015.741.016 1.485.03 2.226l1.975-.004-.003 1.702-1.859-.002c.023 1.015-.226 3.85.234 4.617.494.295 1.113.216 1.669.215-.007.489.003.979.005 1.469l-.023.186c-.191.202-.486.194-.747.2-.794.019-1.891-.107-2.467-.71-1.075-1.125-.74-4.405-.731-5.978l-1.323.001c-.017-.563-.01-1.129-.015-1.692l1.318.007.004-2.249zM27.633 11.453c.102-.005.2-.007.301.008.316.046.628.198.802.476.185.294.21.687.235 1.028.125 1.688.032 3.444.032 5.138 0 1.383.153 3.26-.104 4.592-.081.419-.358.619-.691.846-.127.015-.259.033-.387.026a1.043 1.043 0 0 1-.74-.361c-.183-.216-.177-.648-.193-.919-.116-1.942-.018-3.946-.016-5.893.001-1.107-.151-3.226.082-4.213.083-.353.402-.539.68-.727zM50.055 14.929l.278-.003c.329.368.166 1.535.155 2.018-.696-.007-1.354-.035-1.899.471-1.023.949-.678 4.425-.688 5.82-.548-.005-1.617.195-2.035-.154l-.022-.346c.01-2.586-.055-5.169-.038-7.754.664.021 1.33.007 1.994.003l-.023 1.142c.123-.177.246-.366.389-.527.503-.568 1.186-.619 1.891-.669zM57.608 14.963l2.086.001.005 8.275-2.11-.003.019-8.273zM24.719 14.164c.342.063.645.192.845.489.308.459.316 4.955.162 5.596-.084.351-.388.522-.676.691-.329-.02-.763-.049-.983-.335-.328-.425-.3-5.203-.114-5.802.108-.348.466-.495.765-.64zM58.514 11.554a1.153 1.153 0 1 1 .27 2.29 1.153 1.153 0 0 1-.27-2.29z"/></symbol>
<symbol id="icon-search" viewBox="0 0 32 32"><path d="M13.333 24a10.603 10.603 0 0 0 6.529-2.251l5.861 5.861 1.885-1.885-5.861-5.861a10.602 10.602 0 0 0 2.252-6.531c0-5.881-4.785-10.667-10.667-10.667S2.665 7.451 2.665 13.333C2.665 19.214 7.45 24 13.332 24zm0-18.667c4.412 0 8 3.588 8 8s-3.588 8-8 8-8-3.588-8-8 3.588-8 8-8z"/></symbol>
<symbol id="icon-Icon-1" viewBox="0 0 32 32">
<path d="M22.835 22.364l-0.471 0.471c-0.26 0.26-0.682 0.26-0.943 0l-5.421-5.421-5.421 5.421c-0.26 0.26-0.682 0.26-0.943 0l-0.471-0.471c-0.26-0.26-0.26-0.682 0-0.943l5.421-5.421-5.421-5.421c-0.26-0.26-0.26-0.682 0-0.943l0.471-0.471c0.26-0.26 0.682-0.26 0.943 0l5.421 5.421 5.421-5.421c0.26-0.26 0.683-0.26 0.943 0l0.471 0.471c0.26 0.26 0.26 0.682 0 0.943l-5.421 5.421 5.421 5.421c0.26 0.26 0.26 0.683 0 0.943z"></path>
</symbol>
<symbol id="icon-close-button" viewBox="0 0 32 32">
<path d="M29.581 28.575l-1.006 1.006c-0.555 0.555-1.456 0.555-2.011 0l-11.565-11.565-11.565 11.565c-0.555 0.556-1.456 0.556-2.011 0l-1.006-1.006c-0.555-0.555-0.555-1.456 0-2.011l11.565-11.565-11.565-11.565c-0.555-0.555-0.555-1.456 0-2.011l1.006-1.006c0.555-0.555 1.456-0.555 2.011 0l11.565 11.565 11.565-11.565c0.556-0.555 1.456-0.555 2.011 0l1.006 1.006c0.555 0.555 0.555 1.456 0 2.011l-11.565 11.565 11.565 11.565c0.555 0.556 0.555 1.456 0 2.012z"></path>
<symbol id="icon-icon-button-artists" viewBox="0 0 18 32">
<path d="M0 32l18.286-16-18.286-16v32z"></path>
</symbol>

<symbol id="icon-arrof-down" viewBox="0 0 32 32">
<path d="M30.661 15.33l-3.232-3.232-9.813 9.813v-21.911h-4.571v21.911l-9.813-9.813-3.232 3.232 15.33 15.33 15.33-15.33z"></path>
</symbol>
</defs>

</svg>